<?xml version="1.0" encoding="utf-8"?>
<!-- Generator: Adobe Illustrator 22.0.1, SVG Export Plug-In . SVG Version: 6.00 Build 0)  -->
<svg version="1.1" id="Layer_1" xmlns="http://www.w3.org/2000/svg" xmlns:xlink="http://www.w3.org/1999/xlink" x="0px" y="0px"
	 width="345px" height="225px" viewBox="0 0 345 225" style="enable-background:new 0 0 345 225;" xml:space="preserve">
<style type="text/css">
	.st0{fill:#FFFFFF;}
</style>
<g id="By_cordia">
	<g>
		<path class="st0" d="M207.4,197.1h-2l-4.1,9.9h2.2l0.5-1.3h4.9l0.5,1.3h2.2L207.4,197.1z M204.5,204.1l1.9-4.9l1.9,4.9H204.5z"/>
		<path class="st0" d="M175.3,197.1h4.5c2.5,0,4.1,1.2,4.1,3.4c0,1.5-0.7,2.5-1.9,3v0.1l2.4,3.1v0.2H182l-2.2-3h-2.6v3h-2v-9.8
			H175.3z M179.7,198.8h-2.4v3.5h2.5c1.3,0,2-0.6,2-1.7C181.7,199.4,181,198.8,179.7,198.8"/>
		<path class="st0" d="M190.4,207h-3.9v-9.9h3.9c3.3,0,5.3,2.1,5.3,5C195.7,204.9,193.7,207,190.4,207 M188.5,198.8v6.4h1.8
			c1.9,0,3.3-1.1,3.3-3.2s-1.4-3.2-3.3-3.2H188.5z"/>
		<rect x="197.8" y="197.1" class="st0" width="2" height="9.9"/>
		<path class="st0" d="M167.9,196.8c-0.5,0-4.1,0-6,4.9c-1.4,3.7-4,3.6-4.1,3.6h-0.1c-1.8,0-3.2-1.5-3.2-3.3s1.4-3.3,3.2-3.3
			c0.8,0,1.6,0.3,2.3,0.9l1.2-1.5c-0.9-0.8-2.2-1.3-3.4-1.3c-3,0-5.2,2.1-5.2,5.2c0,2.9,2.2,5.2,5.2,5.2h0.1c0.7,0,4.1-0.3,5.9-4.9
			c1.4-3.7,4-3.6,4.1-3.6h0.1c1.8,0,3.2,1.5,3.2,3.3s-1.4,3.3-3.2,3.3h-0.1c0,0-1.5,0.1-2.9-1.5l-0.9,1.8c1.7,1.6,3.6,1.6,3.9,1.6
			c3,0,5.2-2.1,5.2-5.2C173.1,199,171,196.8,167.9,196.8"/>
		<path class="st0" d="M137,201c-1.2,0-1.8,0.5-2,0.8V197h-1.5v10h1.1l0.2-0.8c0.2,0.3,0.8,1,2.2,1c1.8,0,3-1.3,3-3.1
			C139.9,202.3,138.7,201,137,201 M136.6,205.9c-1.1,0-1.8-0.7-1.8-1.8s0.7-1.8,1.8-1.8c1,0,1.7,0.7,1.7,1.8
			C138.4,205.1,137.6,205.9,136.6,205.9"/>
		<path class="st0" d="M145.2,201.1l-1.6,3.7c0,0,0,0.2,0,0.3h-0.1c0-0.1,0-0.3,0-0.3l-1.6-3.7l0,0H140l2.6,5.5l-1.8,3.7h1.6
			l4.3-9.1L145.2,201.1L145.2,201.1z"/>
	</g>
</g>
<g>
	<path class="st0" d="M60.7,82.9c-4.9-2.3-11.7-3.5-19.3-3.7C33.6,79.3,24,81,24,86.6c0,11.8,42.3,3.4,42.3,23.7
		c0,12.5-14.9,14.5-26.7,14.5c-8.2,0-18.1-1.6-24.2-4.9v-6.2c5.8,2.6,14.5,5,23.9,5c7.4,0,19.3-2.1,19.3-8.1
		c0-13.2-42.4-3.9-42.4-23.7c0-10.2,12.2-13.6,25.1-13.6c7.2,0,14.9,1.4,19.3,3.7L60.7,82.9z"/>
	<path class="st0" d="M122.9,123l-7.9-12.6H84.1L76.2,123h-8.7l32.1-49.9l32.1,49.9H122.9z M99.5,85.6l-11.8,18.8h23.7L99.5,85.6z"
		/>
	<path class="st0" d="M256.4,123l-7.9-12.6h-30.9l-7.9,12.6H201l32.1-49.9l32.1,49.9H256.4z M233,85.6l-11.7,18.8h23.6L233,85.6z"/>
	<path class="st0" d="M269.2,123V74.9H300c16.5,0,30.5,8.7,30.5,24.1c0,15.5-14,24.1-30.5,24.1C300,123,269.2,123,269.2,123z
		 M299.2,117c13.5,0,23.3-6.2,23.3-18s-9.8-17.9-23.3-17.9h-22.5V117H299.2z"/>
	<path class="st0" d="M78,180.3L69.9,167H55.1v13.2H50v-32.5h21c7.4,0,12.1,4.2,12.1,9.7c0,4.5-3.1,7.7-7.9,9.1l8.7,13.9L78,180.3
		L78,180.3z M55.1,151.9v11H70c5,0,7.8-2,7.8-5.4c0-3.5-2.8-5.5-7.8-5.5C70,151.9,55.1,151.9,55.1,151.9z"/>
	<polygon class="st0" points="91.4,180.3 91.4,147.8 124.1,147.8 124.1,151.9 96.6,151.9 96.6,161.4 119.5,161.4 119.5,165.5 
		96.6,165.5 96.6,176.2 124.1,176.2 124.1,180.3 	"/>
	<path class="st0" d="M160.7,153.2c-3.3-1.5-7.9-2.4-13-2.4c-5.3,0-11.7,1.1-11.7,4.9c0,8.1,28.6,2.3,28.6,16c0,8.4-10.1,9.8-18,9.8
		c-5.5,0-12.3-1.1-16.2-3.3V174c3.9,1.8,9.8,3.4,16.2,3.4c5,0,13.1-1.5,13.1-5.4c0-8.9-28.6-2.6-28.6-16c0-6.9,8.3-9.2,16.9-9.2
		c4.8,0,10,0.9,13.1,2.4L160.7,153.2z"/>
	<path class="st0" d="M193.9,181.4c-12.7,0-23.2-7.8-23.2-17.4c0-9.6,10.5-17.4,23.2-17.4c12.8,0,23.2,7.8,23.2,17.4
		C217.2,173.6,206.8,181.4,193.9,181.4 M193.9,150.7c-10.1,0-17.8,6-17.8,13.4s7.7,13.4,17.8,13.4s17.9-5.9,17.9-13.4
		C211.8,156.7,204,150.7,193.9,150.7"/>
	<path class="st0" d="M253.5,180.3l-8.2-13.2h-14.7v13.2h-5.2v-32.5h21c7.4,0,12.1,4.2,12.1,9.7c0,4.5-3.1,7.7-7.9,9.1l8.7,13.9
		h-5.8L253.5,180.3L253.5,180.3z M230.6,151.9v11h14.9c5,0,7.8-2,7.8-5.4c0-3.5-2.8-5.5-7.8-5.5
		C245.4,151.9,230.6,151.9,230.6,151.9z"/>
	<polygon class="st0" points="279.2,180.3 279.2,151.9 262.8,151.9 262.8,147.8 300.7,147.8 300.7,151.9 284.2,151.9 284.2,180.3 	
		"/>
	<path class="st0" d="M136.6,130.5c5.5,2.6,15.4,5.2,25.6,5.2c27.8,0,37.7-14.7,37.7-28.6c0-12.8-7.4-21.4-24.2-27.6
		c-12.2-4.5-19.8-7.8-19.8-16c0-5.8,5.2-11.7,16.5-11.7c8.2,0,14.6,1.9,19.1,3.9l3.9-13.7c-6.4-2.6-14-4-22.8-4
		c-21.2,0-35.4,11.1-35.4,27.6c0,12.2,8.4,21.2,25.9,27.5c11.3,3.9,18,7.8,18,15.9s-6.7,12.8-17.9,12.8c-8.8,0-17.4-2.5-23.4-5.3
		L136.6,130.5z"/>
</g>
</svg>
